<svg xmlns="http://www.w3.org/2000/svg" width="296" height="175" fill="none"><g fill="#32373B" clip-path="url(#a)"><path d="M262.452 36.12c2.889 10.131 5.702 19.984 8.539 29.837.178.583.228 1.52.609 1.698 8.31 3.799 9.273 12.462 12.314 19.427 4.586 10.486 7.981 21.479 12.111 32.827-3.319-.329-5.245 1.596-7.322 3.166-2.027-1.976-2.939-4.23-4.08-6.814-.76 2.736 1.065 4.61.938 7.067-1.647 1.317-2.939 1.419-3.928-1.038-1.545-3.825-3.522-7.498-4.763-11.424-3.421-10.79-8.21-21.2-9.527-32.599-.178-1.646-.862-3.748-.152-4.939 2.534-4.255.38-7.928-.76-11.778-2.23-7.624-4.181-15.375-7.881-22.999-7.804 4.838-15.405 9.777-23.032 15.4 5.473 19.124 10.667 38.197 16.47 57.093 1.647 5.344.431 9.194-2.889 12.943-7.576 8.587-16.85 14.969-26.706 20.719-23.641 13.805-49.536 21.024-75.989 26.52-19.13 3.977-38.463 5.446-57.822 1.19a63.242 63.242 0 0 1-5.32-1.418c-4.714-1.444-7.4-4.281-8.793-9.372-4.536-16.565-9.705-32.953-14.595-49.417-2.331-7.878-2.306-7.979-10.667-8.182-14.367-.38-28.734-.633-43.075-.962-1.064 0-2.154-.101-3.193-.253-1.419-.228-2.736-.836-2.964-2.432-.203-1.393.887-2.077 1.9-2.862C26.884 77.66 51.893 57.8 76.825 37.868c14.57-11.652 29.013-23.456 43.455-35.26 2.686-2.177 5.448-2.912 8.894-2.507 49.004 5.953 98.033 11.83 147.037 17.832 2.306.279 5.904-1.216 6.715 2.23.709 3.09-2.661 4.153-4.688 5.572-5.169 3.546-10.465 6.89-15.811 10.36l.025.025ZM4.966 99.088c5.119.279 8.92.659 12.745.684 43.734.177 87.417 2.026 131.075 4.357 3.75.202 6.714-.659 9.805-2.787 30.229-21.073 60.609-41.92 91.598-61.854 9.046-5.825 18.547-10.992 27.162-18.11-1.013-.228-1.596-.405-2.204-.481C225.94 15.248 176.734 9.625 127.502 3.95c-1.495-.177-2.585.102-3.776 1.064-23.64 19.15-47.94 37.462-71.428 56.788C37.095 74.317 21.36 86.221 4.992 99.088h-.026Zm59.621 9.625c4.08 18.161 8.235 36.348 14.215 54.053.633 1.874 1.85 2.634 3.496 3.217 7.576 2.609 15.355 4.28 23.362 4.407 12.695.203 25.313-.557 37.855-2.913 26.504-4.964 51.943-12.842 75.66-25.886 10.135-5.573 19.358-12.26 27.086-20.897 2.23-2.508 3.117-4.914 2.256-8.637-2.99-12.716-7.45-24.95-11.099-37.437-1.343-4.61-3.294-9.042-4.966-13.551-11.503 7.447-22.779 14.742-34.054 22.036-11.428 7.397-22.982 14.59-34.257 22.214-4.891 3.318-9.882 4.661-15.786 4.483-26.402-.81-52.83-1.291-79.232-1.925-1.546-.025-3.041-.253-4.51.862l-.026-.026Z"/><path d="M11.478 95.998c6.157-.81 11.833-.076 17.483.076 39.401 1.165 78.802 2.406 118.203 3.749 4.637.152 8.488-.963 12.365-3.622 33.167-22.974 66.436-45.796 99.705-68.592 2.686-1.824 5.195-4.103 9.553-5.066-3.699 3.926-7.45 6.231-11.022 8.663-32.99 22.467-66.031 44.807-98.946 67.376-3.674 2.533-7.12 3.622-11.63 3.47-43.353-1.495-86.732-2.736-130.111-4.154-1.672-.05-3.953.912-5.6-1.875v-.025Z"/></g><defs><clipPath id="a"><path fill="#fff" d="M0 0h296v175H0z"/></clipPath></defs></svg>