<svg xmlns="http://www.w3.org/2000/svg" width="115" height="129" fill="none"><g fill="#32373B" clip-path="url(#a)"><path d="M39.464 106.376c-1.472-1.5-2.034-2.77.26-3.707 2.259-.933 3.485-2.842 3.677-5.726-1.096-.49-2.235-1.082-3.433-1.53-9.765-3.59-14.972-11.034-17.366-20.726-3.404-13.732-.548-26.353 8.539-36.925 7.14-8.323 16.991-12.52 28.04-11.496C74.658 27.694 86.456 36.492 91 52.3c2.986 10.385 2.538 20.28-2.178 29.987-2.87 5.9-7.255 10.169-13.385 12.635-1.53.606-3.015 1.313-4.63 2.005.057.981.216 1.933.144 2.856-.144 1.731.447 2.423 2.279 2.64 3 .346 3.418 1.529 1.6 3.937.982 1.169 2.51 2.337.837 4.097-.72.764.202 1.038.505 1.442.938 1.212.895 2.467-.447 3.087-1.558.721-1.962 1.918-2.495 3.317-1.226 3.202-3.274 5.943-5.25 8.712-.563.794-1.313.996-2.236 1.082a86.32 86.32 0 0 1-17.266 0c-.923-.086-1.673-.274-2.235-1.082-2.164-3.159-4.616-6.159-5.64-9.938-.245-.894-.692-1.327-1.457-1.644-.663-.274-1.659-1.01-1.471-1.298 1.558-2.366-1.024-5.582 1.789-7.731v-.029Zm29.15-4.674c0-.966.144-1.774-.029-2.51-.634-2.682.419-4.11 2.914-5.206 5.856-2.582 10.904-6.188 14.034-12.044 4.573-8.568 6.145-17.496 3.808-27.045-3.909-16.04-16.241-24.794-31.27-25.992-10.242-.822-25.877 6.736-31.445 20.425-6.404 15.75-1.14 37.934 15.564 44.396 3.26 1.255 4.11 3.303 3.39 6.448-.102.461-.188 1.052.374 1.572 2.106.115 4.313.245 6.592.36.043-.476.115-.822.115-1.168-.187-12.707-2.279-25.14-5.466-37.415-.36-1.37-1.197-1.977-2.438-2.41-2.582-.908-5.077-2.033-6.563-4.5-1.053-1.745-1.442-3.75.087-5.336 1.673-1.746 3.591-.837 5.207.317 2.279 1.615 3.692 3.952 4.702 6.49.534 1.328 1.356 1.861 2.64 2.135 4.24.91 8.48.91 12.721-.043 1.198-.274 1.948-.808 2.438-2.02 1.024-2.523 2.423-4.874 4.673-6.519 1.616-1.168 3.52-2.12 5.222-.418 1.644 1.644 1.197 3.707.058 5.539-1.313 2.106-3.376 3.346-5.655 4.01-2.235.663-3.086 2.033-3.635 4.168-2.149 8.207-3.505 16.544-4.442 24.939-.447 4.039-1.14 8.12-.433 12.217 2.236-.13 4.4-.26 6.852-.39h-.015ZM50.022 62.845c3.635 13.14 5.178 26.136 4.788 39.377 1.703.288 3.13.432 4.645-.13-.476-13.256 1.212-26.165 4.731-39.247-4.789 1.053-9.347 1.038-14.164 0Zm21.073 53.627c-9.404-.735-18.578-.735-28.126 0 1.413 3.001 2.625 5.727 4.298 8.265 3.317-1.283 6.664-.88 9.952-.908 3.289-.029 6.606-.274 9.852.908 1.399-2.755 2.928-5.25 4.01-8.279l.014.014Zm3.202-7.399c-.75-1.428-1.6-1.803-2.9-1.702-9.548.635-19.11.678-28.674 0-1.37-.101-2.293.288-3.158 2.063 11.827 1.081 23.265 1.154 34.718-.347l.014-.014Zm.216 4.024c-.793-1.197-1.76-1.428-3.014-1.428a2379.5 2379.5 0 0 1-28.776 0c-1.312 0-2.336.173-2.928 1.457 2.366 1.168 32.266 1.168 34.718-.043v.014Zm-32.944-8.221c10.357 1.557 20.756 1.529 31.156.072-1.125-.693-29.67-.837-31.155-.072Zm24.045 21.347c-2.51-1.284-15.275-1.14-16.76.043 5.48.851 11.02.851 16.76-.043Zm9.044-73.417c-3.174.88-4.212 2.971-5.481 5.596 2.783-1.11 4.774-2.221 5.48-5.596Zm-29.973 5.149c-1.082-2.106-1.99-4.4-5.092-5.106.664 3.332 2.669 4.428 5.092 5.106Z"/><path d="M100.101 98.702c-2.48-6.49-4.86-12.462-2.711-19.169 2.163-6.78 6.966-10.587 14.178-12.765-17.25-10.154-15.736-23.8-8.654-38.613-.808-.634-1.688-.26-2.466-.13-7.53 1.241-13.963-1.254-19.602-5.985-3.837-3.217-4.775-7.587-3.88-12.362.389-2.033 1.081-4.024 1.745-6.39-14.38 6.347-28.675 6.65-43.185-.086.62 2.265 1.255 4.212 1.673 6.202 1.154 5.553-.317 10.227-4.99 13.63-5.568 4.054-11.64 6.275-18.65 4.948-.433-.086-.866-.086-1.299-.115-.26 0-.505.043-.98.086 7.082 14.857 8.755 28.617-8.583 38.8 7.154 2.193 11.972 5.972 14.15 12.751 2.15 6.722-.202 12.693-2.61 18.939 2.51.404 4.802-.289 7.096.1 4.976.852 7.962 4.01 10.053 8.294.289.577.49 1.212-.144 1.645-.692.476-1.414.202-1.832-.433-3.894-5.784-9.332-6.895-15.852-5.741-2.942.52-3.634-.923-2.51-3.837.996-2.596 1.876-5.25 2.871-7.846 1.76-4.644 1.038-9.058-1.125-13.385-1.385-2.77-3.404-4.803-6.347-5.914-1.543-.591-3.086-1.24-4.514-2.063-2.553-1.471-2.524-3.606-.058-5.293.289-.202.591-.36.894-.534 8.193-4.947 11.496-12.29 9.866-21.823-.75-4.428-2.207-8.597-4.24-12.592-.592-1.169-1.428-2.409-.462-3.65.966-1.24 2.438-.706 3.678-.447 6.318 1.284 12.116.13 17.467-3.476 5.265-3.548 6.765-7.385 5.135-13.472-.432-1.6-1.01-3.158-1.543-4.716-.346-.995-.88-2.092.159-2.885.937-.736 1.961-.187 2.956.216 3.635 1.443 7.198 3.217 10.963 4.183 10.471 2.698 20.568 1.01 30.275-3.447.707-.332 1.4-.721 2.12-1.01.823-.317 1.717-.548 2.438.217.62.663.418 1.442.173 2.221-.692 2.25-1.471 4.471-2.034 6.75-.98 3.981.015 7.457 3.145 10.17 5.539 4.817 11.943 6.663 19.212 5.394.433-.072.851-.231 1.284-.246 1.024-.057 2.178-.447 2.928.549.808 1.052.318 2.163-.202 3.202-2.827 5.495-4.659 11.221-4.774 17.496-.13 7.558 3.317 12.996 9.448 16.991.735.476 1.543.851 2.206 1.4 1.702 1.398 1.659 3.36-.201 4.543-1.385.88-2.943 1.514-4.472 2.149-6.188 2.596-10.154 10.096-8.697 16.703.807 3.663 2.105 7.183 3.562 10.644 1.255 2.972.519 4.01-2.726 3.952-.779-.014-1.587-.028-2.35-.201-4.746-1.068-8.597.331-11.641 4.081-.49.606-1.053 1.169-1.572 1.76-.52.577-1.154.923-1.846.447-.765-.519-.332-1.226-.087-1.875 1.933-5.149 7.385-8.596 13.068-8.221 1.212.072 2.409.173 4.082.303l.014-.044Z"/></g><defs><clipPath id="a"><path fill="#fff" d="M0 0h114.208v128.502H0z"/></clipPath></defs></svg>