<svg xmlns="http://www.w3.org/2000/svg" width="56" height="56" fill="none"><g fill="#ff3b45" clip-path="url(#a)"><path d="M36.986 3.558c4.102-1.368 9.66-2.076 15.239.727a.87.87 0 0 1 .48.777v42.395a.87.87 0 0 1-.885.87l-.093-.006h-.003l-.01-.001-.043-.005a34 34 0 0 0-.836-.09 68 68 0 0 0-2.407-.187c-2.007-.121-4.702-.2-7.47-.035-2.78.166-5.578.576-7.82 1.405-2.258.836-3.775 2.029-4.312 3.649a.87.87 0 0 1-1.652 0c-.537-1.62-2.054-2.813-4.312-3.649-2.241-.83-5.04-1.239-7.82-1.405-2.768-.165-5.463-.086-7.47.035a68 68 0 0 0-3.071.257l-.172.02-.043.005h-.01l-.003.001a.87.87 0 0 1-.977-.864V5.062a.87.87 0 0 1 .48-.777c5.578-2.803 11.136-2.095 15.238-.727a28 28 0 0 1 4.96 2.224c.599.343 1.072.644 1.397.861q.244.165.375.259l.1.071.028.02.008.007.002.001.002.002a.87.87 0 0 1-.971 1.44l-.074-.049-.003-.002-.02-.014a14 14 0 0 0-.414-.288 22 22 0 0 0-1.294-.797 26 26 0 0 0-4.646-2.084c-3.724-1.242-8.568-1.853-13.428.399V46.49a70 70 0 0 1 2.43-.189c2.05-.124 4.82-.206 7.68-.035 2.85.17 5.845.595 8.32 1.51 1.84.681 3.492 1.673 4.534 3.12 1.042-1.447 2.694-2.439 4.535-3.12 2.474-.915 5.47-1.34 8.32-1.51 2.86-.17 5.63-.089 7.678.035 1.005.061 1.84.132 2.431.19V5.607c-4.86-2.252-9.703-1.64-13.428-.4a26 26 0 0 0-4.646 2.085c-.56.32-.998.6-1.294.797q-.223.15-.334.23l-.082.058-.017.014-.004.002-.073.05a.87.87 0 0 1-.972-1.44l.522.695c-.522-.696-.521-.696-.521-.697L30.119 7l.008-.006.027-.02.101-.072q.131-.094.375-.259c.326-.217.798-.518 1.397-.86a28 28 0 0 1 4.96-2.225Z"/><path d="M7.746 12.076c5.156-1.323 9.417-.357 12.383.943 1.48.648 2.64 1.38 3.433 1.954.396.286.703.534.912.712q.158.136.242.214l.066.062.019.018.006.005.003.003-.385.396.386-.396a.87.87 0 0 1-1.215 1.246l-.01-.008-.044-.042a7 7 0 0 0-.196-.173c-.178-.152-.448-.37-.803-.627a17 17 0 0 0-3.112-1.77c-2.688-1.179-6.548-2.058-11.253-.85a.87.87 0 0 1-.432-1.687m0 10.599c5.156-1.323 9.417-.357 12.383.942 1.48.65 2.64 1.382 3.433 1.955.396.286.703.534.912.712q.158.136.242.214l.066.062.019.018.006.005.003.003-.385.396.386-.396a.87.87 0 0 1-1.215 1.246l-.01-.008-.044-.042a7 7 0 0 0-.196-.173 13 13 0 0 0-.803-.627 17 17 0 0 0-3.112-1.77c-2.688-1.18-6.548-2.059-11.253-.851a.87.87 0 0 1-.432-1.686m0 10.599c5.156-1.323 9.417-.358 12.383.942a18.7 18.7 0 0 1 3.433 1.955c.396.286.703.534.912.712q.158.136.242.214l.066.061.019.018.006.005.003.004-.385.396.386-.396a.87.87 0 0 1-1.215 1.246l-.01-.008-.044-.042a7 7 0 0 0-.196-.173 13 13 0 0 0-.803-.627 17 17 0 0 0-3.112-1.771c-2.688-1.178-6.548-2.058-11.253-.85a.87.87 0 0 1-.432-1.686M35.87 13.018c2.967-1.3 7.228-2.266 12.384-.942a.87.87 0 0 1-.432 1.686c-4.705-1.208-8.564-.328-11.253.85-1.347.59-2.4 1.256-3.111 1.77-.356.258-.626.476-.803.628a8 8 0 0 0-.242.215l-.009.008-.067.059a.87.87 0 0 1-1.148-1.305l.386.396-.385-.396.002-.003.006-.005.02-.018.065-.062q.085-.078.243-.214c.21-.178.515-.426.911-.712a18.7 18.7 0 0 1 3.433-1.955m0 10.599c2.967-1.3 7.228-2.266 12.384-.942a.87.87 0 0 1-.432 1.686c-4.705-1.208-8.564-.328-11.253.85-1.347.59-2.4 1.256-3.111 1.77-.356.258-.626.476-.803.628a7 7 0 0 0-.242.215l-.009.008-.067.059a.87.87 0 0 1-1.148-1.305l.386.396-.385-.396v-.001l.002-.003.006-.005.02-.018.065-.061q.085-.078.243-.214c.21-.178.515-.426.911-.712a18.7 18.7 0 0 1 3.433-1.955m0 10.599c2.967-1.3 7.228-2.266 12.384-.942a.87.87 0 0 1-.432 1.686c-4.705-1.208-8.564-.328-11.253.85-1.347.59-2.4 1.256-3.111 1.77a13 13 0 0 0-.803.628 7 7 0 0 0-.242.215l-.009.008-.067.059a.87.87 0 0 1-1.148-1.305l.386.395-.385-.395v-.001l.002-.003.006-.005.02-.018.065-.061a15 15 0 0 1 1.154-.926 18.7 18.7 0 0 1 3.433-1.955" opacity=".4"/></g><defs><clipPath id="a"><path fill="#fff" d="M0 0h56v56H0z"/></clipPath></defs></svg>