<svg xmlns="http://www.w3.org/2000/svg" width="109" height="693" fill="none"><path stroke="#414B53" stroke-width="2" d="M61.845.153c1.5 9.707 3.818 23.883 7.018 24.745 3.2.863 13.334 6.112 18 8.629l5.5 19.952c-3.333 3.775-10 12.295-10 16.178 0 4.853-6.5 9.707-6.5 14.02 0 4.315 6.5 15.64 6.5 23.189 0 7.55 25 18.874 25 24.806 0 5.932-15 11.324-15 17.256 0 4.746-11 15.998-16.5 21.031v23.728l-14 10.246 16 13.481v6.472l-4 4.853c.834-2.517 2-5.285 0 3.775-2 9.059 4.834 14.56 8.5 16.178v2.696l-4.5 29.659-17.5 55.005-35 18.335 43.5 47.455-7 55.004c-4.833 4.674-15.1 15.746-17.5 22.649-3 8.628-19 12.942-19 22.649s6 32.356 0 38.827c-4.8 5.177 6 40.264 12 57.161 2.334 2.517 7 8.844 7 14.021 0 5.177-16.666 20.852-25 28.042L.943 692.609"/></svg>